<?xml version="1.0" encoding="UTF-8" standalone="no"?>
<!DOCTYPE svg PUBLIC "-//W3C//DTD SVG 1.1//EN" "http://www.w3.org/Graphics/SVG/1.1/DTD/svg11.dtd">
<svg width="100%" height="100%" viewBox="0 0 326 326" version="1.1" xmlns="http://www.w3.org/2000/svg" xmlns:xlink="http://www.w3.org/1999/xlink" xml:space="preserve" xmlns:serif="http://www.serif.com/" style="fill-rule:evenodd;clip-rule:evenodd;stroke-linejoin:round;stroke-miterlimit:2;">
    <g transform="matrix(4.16667,0,0,4.16667,162.826,179.841)">
        <path d="M0,-8.209C-0.049,-8.209 -0.098,-8.199 -0.143,-8.181L-2.797,-7.081C-2.887,-7.044 -2.96,-6.971 -2.998,-6.88L-4.096,-4.229C-4.134,-4.137 -4.134,-4.036 -4.096,-3.944L-2.997,-1.289C-2.959,-1.199 -2.886,-1.126 -2.795,-1.088L-0.144,0.01C-0.052,0.048 0.05,0.048 0.141,0.01L2.794,-1.089C2.886,-1.128 2.958,-1.199 2.996,-1.291L4.094,-3.942C4.131,-4.032 4.132,-4.137 4.094,-4.228L2.995,-6.881C2.957,-6.972 2.884,-7.045 2.793,-7.083L0.143,-8.181C0.097,-8.199 0.049,-8.209 0,-8.209M-0.002,1.267C-0.209,1.267 -0.417,1.226 -0.614,1.144L-3.265,0.046C-3.654,-0.115 -3.97,-0.431 -4.131,-0.82L-5.23,-3.475C-5.394,-3.868 -5.394,-4.304 -5.23,-4.699L-4.132,-7.35C-3.971,-7.738 -3.656,-8.054 -3.267,-8.216L-0.613,-9.314C-0.218,-9.478 0.217,-9.479 0.613,-9.314L3.263,-8.217C3.652,-8.055 3.968,-7.739 4.129,-7.351L5.228,-4.696C5.392,-4.302 5.392,-3.867 5.229,-3.473L4.13,-0.821C3.966,-0.426 3.659,-0.118 3.264,0.045L0.61,1.144C0.413,1.226 0.206,1.267 -0.002,1.267M-4.939,-26.664C-4.732,-26.664 -4.525,-26.623 -4.327,-26.541C-3.932,-26.378 -3.625,-26.07 -3.461,-25.675L-2.513,-23.386C-2.349,-22.99 -2.349,-22.556 -2.512,-22.161C-2.676,-21.766 -2.984,-21.458 -3.378,-21.295L-13.015,-17.303C-13.107,-17.265 -13.179,-17.193 -13.217,-17.101L-18.55,-4.227C-18.587,-4.137 -18.587,-4.032 -18.55,-3.941L-3.583,32.193C-3.545,32.285 -3.473,32.356 -3.381,32.395L-0.142,33.736C-0.049,33.774 0.052,33.774 0.143,33.736C0.235,33.698 0.307,33.626 0.345,33.534C0.383,33.442 0.383,33.342 0.345,33.25L-14.865,-3.472C-15.029,-3.866 -15.029,-4.302 -14.865,-4.696L-10.943,-14.165C-10.779,-14.56 -10.472,-14.867 -10.077,-15.03L-2.145,-18.316C-1.331,-18.653 -0.392,-18.266 -0.054,-17.45L2.13,-12.176L0.143,-12.999C0.052,-13.037 -0.05,-13.037 -0.142,-12.999L-6.205,-10.488C-6.295,-10.45 -6.368,-10.377 -6.406,-10.287L-8.915,-4.23C-8.953,-4.138 -8.953,-4.036 -8.914,-3.944L5.591,31.076C5.67,31.267 5.889,31.355 6.078,31.278L26.64,22.761C26.731,22.723 26.804,22.649 26.842,22.56L37.82,-3.944C37.858,-4.036 37.858,-4.138 37.82,-4.23L26.844,-30.728C26.806,-30.819 26.734,-30.891 26.643,-30.929L23.404,-32.271C23.196,-32.356 23.051,-32.242 22.998,-32.189C22.945,-32.137 22.831,-31.991 22.917,-31.783L34.137,-4.695C34.301,-4.301 34.301,-3.866 34.137,-3.472L24.573,19.62C24.409,20.016 24.101,20.323 23.707,20.486L8.957,26.596C8.562,26.76 8.127,26.759 7.732,26.596C7.337,26.433 7.03,26.125 6.866,25.729L5.917,23.439C5.58,22.624 5.969,21.687 6.783,21.35L19.829,15.945C19.921,15.907 19.993,15.836 20.031,15.743L28.185,-3.941C28.222,-4.032 28.222,-4.137 28.185,-4.227L15.212,-35.545C15.175,-35.637 15.101,-35.71 15.011,-35.747L11.772,-37.089C11.565,-37.175 11.419,-37.062 11.366,-37.008C11.313,-36.955 11.199,-36.81 11.285,-36.603L24.5,-4.697C24.661,-4.309 24.661,-3.861 24.5,-3.473L17.757,12.807C17.593,13.202 17.285,13.51 16.891,13.673L5.55,18.371C4.736,18.708 3.797,18.32 3.459,17.505L2.511,15.215C2.347,14.82 2.347,14.385 2.511,13.99C2.674,13.595 2.982,13.287 3.377,13.124L13.013,9.132C13.104,9.095 13.177,9.021 13.215,8.931L18.548,-3.943C18.585,-4.034 18.585,-4.139 18.547,-4.23L3.58,-40.363C3.542,-40.455 3.47,-40.527 3.379,-40.565L0.14,-41.907C0.05,-41.944 -0.054,-41.944 -0.145,-41.907C-0.335,-41.828 -0.425,-41.61 -0.347,-41.42L14.863,-4.699C15.027,-4.305 15.027,-3.87 14.864,-3.476L10.941,5.994C10.781,6.383 10.465,6.698 10.075,6.859L2.143,10.145C1.328,10.483 0.39,10.095 0.052,9.279L-2.132,4.006L-0.146,4.828C-0.056,4.866 0.049,4.866 0.139,4.828L6.202,2.317C6.294,2.279 6.366,2.207 6.404,2.115L8.913,-3.94C8.951,-4.033 8.951,-4.134 8.913,-4.226L-5.593,-39.247C-5.672,-39.438 -5.892,-39.527 -6.08,-39.448L-26.642,-30.931C-26.734,-30.893 -26.806,-30.821 -26.844,-30.73L-37.822,-4.227C-37.86,-4.135 -37.86,-4.033 -37.822,-3.941L-26.846,22.557C-26.809,22.647 -26.735,22.721 -26.645,22.758L-23.406,24.1C-23.198,24.186 -23.052,24.072 -23,24.02C-22.947,23.966 -22.833,23.82 -22.919,23.613L-34.139,-3.475C-34.303,-3.87 -34.302,-4.306 -34.139,-4.7L-24.574,-27.791C-24.411,-28.185 -24.104,-28.493 -23.709,-28.656L-8.959,-34.767C-8.143,-35.105 -7.207,-34.716 -6.868,-33.901L-5.92,-31.61C-5.756,-31.216 -5.756,-30.78 -5.92,-30.386C-6.083,-29.991 -6.391,-29.684 -6.785,-29.52L-19.831,-24.116C-19.923,-24.078 -19.995,-24.006 -20.033,-23.914L-28.187,-4.229C-28.225,-4.137 -28.225,-4.036 -28.187,-3.944L-15.214,27.375C-15.176,27.467 -15.104,27.538 -15.012,27.576L-11.774,28.918C-11.566,29.004 -11.421,28.89 -11.368,28.837C-11.315,28.784 -11.201,28.639 -11.287,28.432L-24.502,-3.474C-24.666,-3.868 -24.666,-4.303 -24.503,-4.697L-17.759,-20.978C-17.595,-21.373 -17.288,-21.681 -16.893,-21.844L-5.552,-26.541C-5.355,-26.623 -5.147,-26.664 -4.939,-26.664M0,34.993C-0.207,34.993 -0.414,34.952 -0.612,34.87L-3.851,33.528C-4.245,33.365 -4.553,33.058 -4.717,32.663L-19.684,-3.473C-19.847,-3.867 -19.847,-4.302 -19.684,-4.696L-14.351,-17.571C-14.187,-17.967 -13.88,-18.273 -13.485,-18.437L-3.848,-22.429C-3.756,-22.467 -3.685,-22.538 -3.647,-22.631C-3.609,-22.723 -3.609,-22.823 -3.647,-22.915L-4.595,-25.206C-4.633,-25.298 -4.705,-25.369 -4.797,-25.407C-4.889,-25.445 -4.99,-25.445 -5.083,-25.407L-16.423,-20.709C-16.515,-20.671 -16.587,-20.6 -16.625,-20.508L-23.368,-4.228C-23.405,-4.138 -23.406,-4.033 -23.368,-3.942L-10.153,27.962C-9.905,28.562 -10.041,29.246 -10.5,29.705C-10.959,30.164 -11.643,30.301 -12.244,30.052L-15.482,28.711C-15.877,28.547 -16.184,28.24 -16.348,27.845L-29.321,-3.474C-29.484,-3.869 -29.484,-4.304 -29.321,-4.699L-21.167,-24.385C-21.003,-24.779 -20.696,-25.087 -20.301,-25.25L-7.255,-30.654C-7.164,-30.692 -7.092,-30.764 -7.053,-30.855C-7.016,-30.947 -7.016,-31.049 -7.053,-31.141L-8.002,-33.431C-8.081,-33.621 -8.301,-33.712 -8.489,-33.633L-23.239,-27.522C-23.329,-27.485 -23.403,-27.412 -23.44,-27.321L-33.005,-4.23C-33.043,-4.138 -33.043,-4.036 -33.005,-3.944L-21.785,23.144C-21.537,23.743 -21.672,24.428 -22.132,24.887C-22.591,25.347 -23.275,25.483 -23.876,25.233L-27.115,23.893C-27.504,23.73 -27.819,23.415 -27.98,23.026L-38.956,-3.472C-39.119,-3.866 -39.119,-4.302 -38.956,-4.696L-27.978,-31.199C-27.814,-31.595 -27.507,-31.902 -27.112,-32.065L-6.55,-40.583C-5.736,-40.921 -4.797,-40.532 -4.459,-39.717L10.047,-4.696C10.21,-4.301 10.21,-3.866 10.047,-3.471L7.538,2.585C7.374,2.98 7.067,3.288 6.672,3.451L0.609,5.963C0.433,6.035 0.246,6.075 0.057,6.082L1.186,8.81C1.265,8.999 1.483,9.09 1.673,9.012L9.605,5.726C9.696,5.688 9.77,5.614 9.807,5.524L13.729,-3.944C13.767,-4.036 13.767,-4.138 13.729,-4.23L-1.481,-40.95C-1.818,-41.766 -1.43,-42.703 -0.615,-43.041C-0.226,-43.202 0.221,-43.202 0.61,-43.041L3.849,-41.699C4.243,-41.536 4.55,-41.229 4.714,-40.834L19.682,-4.698C19.845,-4.304 19.845,-3.868 19.682,-3.475L14.349,9.4C14.188,9.789 13.872,10.104 13.483,10.267L3.846,14.258C3.754,14.296 3.683,14.368 3.645,14.46C3.607,14.552 3.607,14.653 3.645,14.745L4.593,17.035C4.672,17.225 4.891,17.314 5.08,17.236L16.421,12.539C16.513,12.501 16.585,12.429 16.623,12.337L23.366,-3.942C23.404,-4.033 23.404,-4.137 23.366,-4.228L10.151,-36.132C9.903,-36.732 10.039,-37.416 10.498,-37.876C10.958,-38.335 11.642,-38.471 12.242,-38.223L15.481,-36.881C15.87,-36.72 16.186,-36.404 16.346,-36.015L29.319,-4.696C29.482,-4.302 29.482,-3.867 29.319,-3.473L21.165,16.214C21.001,16.608 20.693,16.916 20.299,17.079L7.253,22.483C7.063,22.562 6.973,22.78 7.052,22.97L8,25.26C8.038,25.353 8.11,25.424 8.202,25.462C8.294,25.501 8.395,25.5 8.487,25.462L23.237,19.353C23.329,19.313 23.401,19.242 23.439,19.15L33.003,-3.94C33.041,-4.032 33.041,-4.134 33.003,-4.227L21.783,-31.314C21.534,-31.914 21.671,-32.599 22.13,-33.058C22.59,-33.517 23.274,-33.652 23.874,-33.404L27.112,-32.063C27.507,-31.899 27.814,-31.592 27.978,-31.197L38.954,-4.699C39.117,-4.305 39.117,-3.869 38.954,-3.475L27.976,23.028C27.815,23.418 27.499,23.733 27.11,23.895L6.548,32.412C5.734,32.75 4.795,32.361 4.457,31.546L-10.049,-3.475C-10.212,-3.87 -10.212,-4.305 -10.049,-4.699L-7.54,-10.756C-7.379,-11.145 -7.064,-11.461 -6.674,-11.622L-0.611,-14.133C-0.433,-14.207 -0.247,-14.247 -0.06,-14.255L-1.188,-16.98C-1.267,-17.17 -1.486,-17.261 -1.675,-17.183L-9.608,-13.896C-9.699,-13.858 -9.771,-13.786 -9.809,-13.694L-13.731,-4.226C-13.77,-4.134 -13.77,-4.033 -13.731,-3.941L1.479,32.779C1.643,33.175 1.643,33.609 1.479,34.005C1.315,34.399 1.008,34.707 0.613,34.87C0.416,34.952 0.208,34.993 0,34.993" style="fill:rgb(138,114,69);fill-rule:nonzero;"/>
    </g>
</svg>
